<svg width="32" height="32" viewBox="0 0 32 32" fill="none" xmlns="http://www.w3.org/2000/svg">
<path d="M17.5952 0.979126H16.4166L15.1111 16L16.4166 31.0209H17.5952C23.7604 31.0209 28.7583 26.0231 28.7583 19.8578V12.1423C28.7584 5.97701 23.7604 0.979126 17.5952 0.979126Z" fill="#FF6E7A"/>
<path d="M15.238 0.979126C9.07277 0.979126 4.07489 5.97701 4.07489 12.1423V19.8578C4.07489 26.0231 9.07284 31.0209 15.238 31.0209H16.4166V0.979126H15.238Z" fill="#FFABB2"/>
<path d="M18.777 9.01251H16.4166L15.7639 9.9917L16.4166 10.9708H18.777V9.01251Z" fill="#FF0F4D"/>
<path d="M18.777 21.0292H16.4166L15.7639 22.0084L16.4166 22.9875H18.777V21.0292Z" fill="#FF0F4D"/>
<path d="M17.6928 0.00125V0C17.6819 0 17.6711 0.000687501 17.6602 0.000875002C17.6385 0.000687501 17.617 0 17.5952 0H16.4166L15.7639 0.979127L16.4166 2.41319C16.7574 2.13588 17.1894 1.96663 17.6602 1.95913C19.2475 1.96913 20.7496 2.34407 22.087 3.00419H17.8511V4.96251H24.8105C25.1363 5.28995 25.4399 5.63951 25.7191 6.00839H18.9354H17.6929C17.2094 6.00839 16.7652 5.83789 16.4167 5.5542L15.7639 6.76539L16.4167 7.96664H17.6929H18.9354C20.052 7.96664 20.9604 8.87508 20.9604 9.99171C20.9604 11.1083 20.0519 12.0167 18.9354 12.0167H18.777H16.4166L15.7639 12.9958L16.4166 13.975H18.777H18.9354H27.7792V18.025H18.9354H18.777H16.4166L15.7639 19.0042L16.4166 19.9833H18.777H18.9354C20.052 19.9833 20.9604 20.8917 20.9604 22.0083C20.9604 23.1249 20.0519 24.0334 18.9354 24.0334H17.6929H16.4167L15.7639 25.0081L16.4167 26.4458C16.7652 26.1621 17.2094 25.9916 17.6929 25.9916H18.9354H25.7192C25.4399 26.3606 25.1364 26.7101 24.8106 27.0375H17.8512V28.9957H22.0871C20.7496 29.6558 19.2475 30.0307 17.6603 30.0408C17.1895 30.0333 16.7574 29.8641 16.4167 29.5867L15.7639 31.0208L16.4167 31.9999H17.5952C17.617 31.9999 17.6385 31.9993 17.6603 31.9991C17.6712 31.9991 17.682 31.9999 17.6929 31.9999V31.9987C24.3432 31.9459 29.7376 26.5202 29.7376 19.8577V12.1423C29.7374 5.4797 24.3432 0.0540001 17.6928 0.00125ZM22.3636 12.0167C22.7157 11.4229 22.9187 10.7307 22.9187 9.99171C22.9187 9.25271 22.7157 8.56046 22.3636 7.96664H26.8832C27.0363 8.30583 27.1708 8.65496 27.2864 9.01258H24.4694V10.9708H27.7114C27.7509 11.3146 27.7733 11.6635 27.7776 12.0167H22.3636ZM27.7114 21.0292H24.4694V22.9875H27.2865C27.1708 23.345 27.0363 23.6942 26.8833 24.0334H22.3636C22.7157 23.4396 22.9187 22.7474 22.9187 22.0084C22.9187 21.2694 22.7157 20.5772 22.3636 19.9834H27.7776C27.7733 20.3365 27.7509 20.6854 27.7114 21.0292Z" fill="#FF0F4D"/>
<path d="M15.6677 28.0167C15.6677 27.3836 15.96 26.8176 16.4166 26.4459V24.0334H5.94996C5.79689 23.6942 5.66239 23.3451 5.54671 22.9875H16.4166V21.0292H5.12183C5.08227 20.6854 5.05996 20.3365 5.05564 19.9834H16.4166V18.0251H5.05408V13.975H16.4166V12.0167H5.05564C5.05996 11.6635 5.08227 11.3146 5.12183 10.9708H16.4166V9.01252H5.54671C5.66246 8.65495 5.79689 8.30577 5.94996 7.96658H16.4166V5.55407C15.96 5.18245 15.6677 4.61645 15.6677 3.98326C15.6677 3.35019 15.9601 2.78457 16.4166 2.41313V0H15.238C8.54277 0 3.09576 5.44701 3.09576 12.1423V19.8577C3.09576 26.553 8.54277 32 15.238 32H16.4166V29.5868C15.9602 29.2154 15.6677 28.6498 15.6677 28.0167ZM8.02265 4.96245H12.1586V3.00413H10.7462C11.8175 2.47538 12.9943 2.12938 14.2362 2.00757C13.9017 2.59038 13.7095 3.26457 13.7095 3.98326C13.7095 4.72226 13.9125 5.41445 14.2646 6.00826H7.11408C7.39333 5.63939 7.6969 5.28982 8.02265 4.96245ZM14.2362 29.9924C12.9944 29.8706 11.8175 29.5246 10.7462 28.9959H12.1587V27.0376H8.02271C7.6969 26.7101 7.39333 26.3606 7.11408 25.9917H14.2646C13.9125 26.5855 13.7095 27.2777 13.7095 28.0167C13.7095 28.7355 13.9018 29.4097 14.2362 29.9924Z" fill="#FF4F67"/>
<path d="M29.0847 15.3473L29.7374 16.7832L30.9678 16L29.0847 15.3473Z" fill="#424242"/>
<path d="M29.7374 15.2168L29.0847 16H30.9678L29.7374 15.2168Z" fill="#707070"/>
<path d="M24.9432 15.3473L26.2487 19.0042L29.7374 16.7832V16L24.9432 15.3473Z" fill="#FFBA00"/>
<path d="M26.2487 12.9958L24.9432 16H29.7374V15.2169L26.2487 12.9958Z" fill="#FDE09C"/>
<path d="M4.15414 15.3473L5.45965 19.0042H26.2487V16L4.15414 15.3473Z" fill="#FF8E00"/>
<path d="M26.2487 12.9958H5.45965L4.15414 16H26.2487V12.9958Z" fill="#FFBA00"/>
<path d="M1.03226 16V19.0042H5.45964V16L3.24595 14.6945L1.03226 16Z" fill="#FF0F4D"/>
<path d="M5.4597 12.9958H1.03226V15.9999H5.4597V12.9958Z" fill="#FF6E7A"/>
</svg>
